<!DOCTYPE svg PUBLIC "-//W3C//DTD SVG 1.1//EN" "http://www.w3.org/Graphics/SVG/1.1/DTD/svg11.dtd">
<!-- Uploaded to: SVG Repo, www.svgrepo.com, Transformed by: SVG Repo Mixer Tools -->
<svg fill="#000000" width="256px" height="256px" viewBox="0 0 24.00 24.00" xmlns="http://www.w3.org/2000/svg" stroke="#000000" stroke-width="0.00024000000000000003">
<g id="SVGRepo_bgCarrier" stroke-width="0"/>
<g id="SVGRepo_tracerCarrier" stroke-linecap="round" stroke-linejoin="round"/>
<g id="SVGRepo_iconCarrier">
<path d="M12,15a5.006,5.006,0,0,0,5-5V6A5,5,0,0,0,7,6v4A5.006,5.006,0,0,0,12,15ZM9,6a3,3,0,0,1,6,0v4a3,3,0,0,1-6,0ZM3,10V8A1,1,0,0,1,5,8v2a7,7,0,0,0,14,0V8a1,1,0,0,1,2,0v2a9.011,9.011,0,0,1-8,8.941V21h3a1,1,0,0,1,0,2H8a1,1,0,0,1,0-2h3V18.941A9.011,9.011,0,0,1,3,10Z"/>
</g>
</svg>